<svg width="28" height="28" viewBox="0 0 28 28" fill="none" xmlns="http://www.w3.org/2000/svg">
<path d="M8.94446 16.5008C8.94446 16.9664 8.94446 17.1993 9.03117 17.4086C9.11789 17.618 9.28252 17.7826 9.61178 18.1118L9.88819 18.3882C10.2174 18.7176 10.3821 18.8822 10.5914 18.9688C10.8008 19.0556 11.0336 19.0556 11.4992 19.0556H12.362C13.0605 19.0556 13.4098 19.0556 13.7237 18.9255C14.0378 18.7954 14.2847 18.5485 14.7786 18.0546L22.6385 10.1948C23.3891 9.44419 23.7645 9.06886 23.9379 8.65017C24.1691 8.09191 24.1691 7.46465 23.9379 6.9064C23.7645 6.4877 23.3891 6.11237 22.6385 5.36172C21.8877 4.61107 21.5124 4.23575 21.0938 4.06231C20.5354 3.83108 19.9082 3.83108 19.3499 4.06231C18.9312 4.23575 18.5559 4.61107 17.8052 5.36172L9.94544 13.2215C9.45155 13.7154 9.2046 13.9623 9.07453 14.2763C8.94446 14.5903 8.94446 14.9395 8.94446 15.638V16.5008Z" stroke="black" stroke-width="1.5"/>
<path d="M8.86886 17.0334L4.32341 21.5788C3.74409 22.1581 3.74409 23.0973 4.32341 23.6767C4.90273 24.2559 5.84199 24.2559 6.42131 23.6767L10.9668 19.1312" stroke="black" stroke-width="1.5" stroke-linejoin="round"/>
<path d="M8.43893 22.0889L5.91113 19.5612" stroke="black" stroke-width="1.5" stroke-linejoin="round"/>
<path d="M20.5723 23.1C19.1762 23.1 18.0445 21.9683 18.0445 20.5722C18.0445 19.1762 19.1762 18.0444 20.5723 18.0444C21.9684 18.0444 23.1001 19.1762 23.1001 20.5722C23.1001 21.9683 21.9684 23.1 20.5723 23.1Z" stroke="black" stroke-width="1.5" stroke-linejoin="round"/>
</svg>
